<svg id="Capa_1" enable-background="new 0 0 512 512" height="512" viewBox="0 0 512 512" width="512" xmlns="http://www.w3.org/2000/svg"><g><path d="m475.78 321.48c-4.5 15.13-10.55 29.73-18.07 43.62l25.61 25.61-92.6 92.61-25.62-25.62c-13.89 7.53-28.49 13.58-43.62 18.08v36.22h-130.96v-36.22c-15.13-4.5-29.73-10.55-43.62-18.08l-25.62 25.62-92.6-92.61 25.61-25.62c-7.52-13.88-13.57-28.48-18.07-43.61h-36.22v-130.97h36.22c4.5-15.13 10.55-29.73 18.07-43.61l-25.61-25.62 92.6-92.61 25.62 25.62c13.89-7.52 28.49-13.57 43.62-18.07v-36.22h130.96v36.22c15.13 4.5 29.73 10.55 43.62 18.07l25.62-25.62 92.6 92.61-25.61 25.62c7.52 13.89 13.57 28.48 18.07 43.61h36.22v130.97z" fill="#56788b"/><path d="m475.78 321.48c-4.5 15.13-10.55 29.73-18.07 43.62l25.61 25.61-92.6 92.61-25.62-25.62c-13.89 7.53-28.49 13.58-43.62 18.08v36.22h-65.48v-512h65.48v36.22c15.13 4.5 29.73 10.55 43.62 18.07l25.62-25.62 92.6 92.61-25.61 25.62c7.52 13.89 13.57 28.48 18.07 43.61h36.22v130.97z" fill="#304b59"/><ellipse cx="256" cy="256" fill="#eaf4f4" rx="160.13" ry="160.13" transform="matrix(.707 -.707 .707 .707 -106.039 256)"/><path d="m416.13 256c0 88.29-71.83 160.13-160.13 160.13v-320.26c88.3 0 160.13 71.83 160.13 160.13z" fill="#cae8ea"/><g><path d="m160.42 256c0 52.7 42.88 95.58 95.58 95.58l50-95.58-50-95.58c-52.7 0-95.58 42.87-95.58 95.58z" fill="#fbdf63"/><path d="m351.58 256c0 52.7-42.88 95.58-95.58 95.58v-95.58l50-30z" fill="#ed2061"/><path d="m351.58 256h-95.58v-95.58c52.7 0 95.58 42.87 95.58 95.58z" fill="#14bb87"/></g></g></svg>